<svg width="17" height="17" viewBox="0 0 17 17" fill="none" xmlns="http://www.w3.org/2000/svg">
<path d="M12.75 5.66675C12.75 4.53958 12.3022 3.45857 11.5052 2.66154C10.7082 1.86451 9.62717 1.41675 8.5 1.41675C7.37283 1.41675 6.29183 1.86451 5.4948 2.66154C4.69777 3.45857 4.25 4.53958 4.25 5.66675C4.25 10.6251 2.125 12.0417 2.125 12.0417H14.875C14.875 12.0417 12.75 10.6251 12.75 5.66675Z" stroke="#FCFCFF" stroke-width="2" stroke-linecap="round" stroke-linejoin="round"/>
<path d="M9.72537 14.875C9.60084 15.0897 9.42209 15.2679 9.20703 15.3918C8.99197 15.5156 8.74814 15.5808 8.49995 15.5808C8.25177 15.5808 8.00794 15.5156 7.79288 15.3918C7.57781 15.2679 7.39907 15.0897 7.27454 14.875" stroke="#FCFCFF" stroke-width="2" stroke-linecap="round" stroke-linejoin="round"/>
</svg>
