<svg width="20" height="22" viewBox="0 0 20 22" fill="none" xmlns="http://www.w3.org/2000/svg">
<path d="M0 4C0 1.79086 1.79086 0 4 0H16C18.2091 0 20 1.79086 20 4V17.6206C20 19.8297 18.2091 21.6206 16 21.6206H4C1.79086 21.6206 0 19.8297 0 17.6206V4Z" fill="#469C97"/>
<path d="M15.3333 7.56738L8.91667 14.504L6 11.351" stroke="#FCFFFF" stroke-width="2" stroke-linecap="round" stroke-linejoin="round"/>
<path d="M4 2H16V-2H4V2ZM18 4V17.6206H22V4H18ZM16 19.6206H4V23.6206H16V19.6206ZM2 17.6206V4H-2V17.6206H2ZM4 19.6206C2.89543 19.6206 2 18.7251 2 17.6206H-2C-2 20.9343 0.686291 23.6206 4 23.6206V19.6206ZM18 17.6206C18 18.7251 17.1046 19.6206 16 19.6206V23.6206C19.3137 23.6206 22 20.9343 22 17.6206H18ZM16 2C17.1046 2 18 2.89543 18 4H22C22 0.686292 19.3137 -2 16 -2V2ZM4 -2C0.686289 -2 -2 0.686297 -2 4H2C2 2.89543 2.89543 2 4 2V-2Z" fill="#469C97"/>
</svg>
