<svg width="189" height="29" viewBox="0 0 189 29" fill="none" xmlns="http://www.w3.org/2000/svg">
<circle cx="7.58349" cy="5.18896" r="5.18896" fill="#EF6068"/>
<path d="M7.98302 10.3779C4.09939 10.3779 -3.73844e-06 17.3105 0 27.9406H15.5669C15.5669 17.3105 11.4783 10.3779 7.98302 10.3779Z" fill="#EF6068"/>
<circle cx="26.7427" cy="5.18896" r="5.18896" fill="#EF6068"/>
<path d="M27.1422 10.3779C23.2586 10.3779 19.1592 17.3105 19.1592 27.9406H34.7261C34.7261 17.3105 30.6375 10.3779 27.1422 10.3779Z" fill="#EF6068"/>
<circle cx="65.061" cy="5.18896" r="4.68896" stroke="#5451F8"/>
<path d="M65.4606 10.3779C61.5769 10.3779 57.4775 17.3105 57.4775 27.9406H73.0444C73.0444 17.3105 68.9558 10.3779 65.4606 10.3779Z" stroke="#5451F8"/>
<circle cx="84.2202" cy="5.18896" r="4.68896" stroke="#5451F8"/>
<path d="M84.6197 10.3779C80.7361 10.3779 76.6367 17.3105 76.6367 27.9406H92.2036C92.2036 17.3105 88.115 10.3779 84.6197 10.3779Z" stroke="#5451F8"/>
<circle cx="103.379" cy="5.18896" r="4.68896" stroke="#5451F8"/>
<path d="M103.779 10.3779C99.8953 10.3779 95.7959 17.3105 95.7959 27.9406H111.363C111.363 17.3105 107.274 10.3779 103.779 10.3779Z" stroke="#5451F8"/>
<circle cx="122.539" cy="5.18896" r="4.68896" stroke="#5451F8"/>
<path d="M122.938 10.3779C119.054 10.3779 114.955 17.3105 114.955 27.9406H130.522C130.522 17.3105 126.433 10.3779 122.938 10.3779Z" stroke="#5451F8"/>
<circle cx="141.698" cy="5.18896" r="4.68896" stroke="#5451F8"/>
<path d="M142.097 10.3779C138.214 10.3779 134.114 17.3105 134.114 27.9406H149.681C149.681 17.3105 145.593 10.3779 142.097 10.3779Z" stroke="#5451F8"/>
<circle cx="160.857" cy="5.18896" r="4.68896" stroke="#5451F8"/>
<path d="M161.256 10.3779C157.373 10.3779 153.273 17.3105 153.273 27.9406H168.84C168.84 17.3105 164.752 10.3779 161.256 10.3779Z" stroke="#5451F8"/>
<circle cx="180.017" cy="5.18896" r="4.68896" stroke="#5451F8"/>
<path d="M180.417 10.3779C176.533 10.3779 172.434 17.3105 172.434 27.9406H188C188 17.3105 183.912 10.3779 180.417 10.3779Z" stroke="#5451F8"/>
<circle cx="45.9019" cy="5.18896" r="4.68896" stroke="#5451F8"/>
<path d="M46.3014 10.3779C42.4177 10.3779 38.3184 17.3105 38.3184 27.9406H53.8852C53.8852 17.3105 49.7966 10.3779 46.3014 10.3779Z" stroke="#5451F8"/>
<path d="M45.9022 20.7559C39.1167 20.7559 38.3184 19.5584 38.3184 27.9406H53.8852C53.8852 19.5584 52.6878 20.7559 45.9022 20.7559Z" fill="#EF6068"/>
</svg>
