<svg width="188" height="207" viewBox="0 0 188 207" fill="none" xmlns="http://www.w3.org/2000/svg">
<path d="M22.752 52.4205C11.7973 54.9994 5.18017 66.0448 9.1379 77.4452C1.96583 87.7275 12.7913 105.471 19.03 101.176C20.4912 112.004 40.6287 113.945 46.2826 104.555C51.6231 107.368 65.4227 108.939 71.3447 94.5545C75.3007 102.138 91.4548 98.5559 98.8353 89.2754C101.578 98.3306 118.692 100.971 127.018 95.211C128.573 101.803 146.929 108.25 152.644 100.27C159.85 104.76 170.253 98.2518 170.513 83.7234C176.985 81.3735 180.46 65.1677 168.477 62.4232C169.722 56.9845 165.659 42.221 151.833 41.4042C150.676 31.1575 132.719 22.3099 123.217 30.5924C119.259 19.1921 101.492 15.3137 94.9228 24.1122C91.5914 17.6252 69.7472 13.5762 67.1521 24.9068C59.6965 21.7682 42.9177 25.5573 42.8192 37.4596C36.777 33.2489 21.4984 40.6854 22.752 52.4205Z" fill="#FCFCFF"/>
<path d="M170.513 83.7234C176.985 81.3735 180.46 65.1677 168.477 62.4232C169.722 56.9845 165.659 42.221 151.833 41.4042C150.676 31.1575 132.719 22.3099 123.217 30.5924C119.259 19.1921 101.492 15.3137 94.9228 24.1122C91.5914 17.6252 69.7472 13.5762 67.1521 24.9068C59.6965 21.7682 42.9177 25.5573 42.8192 37.4596C36.777 33.2489 21.4984 40.6854 22.752 52.4205C11.7973 54.9995 5.18017 66.0448 9.1379 77.4452C1.96583 87.7275 12.7913 105.471 19.03 101.176C20.4912 112.004 40.6287 113.945 46.2826 104.555C51.6231 107.368 65.4227 108.939 71.3447 94.5545C75.3007 102.138 91.4548 98.5559 98.8353 89.2754C101.578 98.3306 118.692 100.971 127.018 95.211C128.573 101.803 146.929 108.25 152.644 100.27C159.85 104.76 170.253 98.2518 170.513 83.7234ZM170.513 83.7234C179.834 85.8581 176.898 81.4048 170.513 83.7234Z" stroke="#E9E9FA"/>
<circle cx="68.9622" cy="106.729" r="2.06182" fill="#FCFCFF"/>
<circle cx="74.4601" cy="113.601" r="1.37455" fill="#FCFCFF"/>
<circle cx="79.2711" cy="119.1" r="0.687273" fill="#FCFCFF"/>
<g clip-path="url(#clip0_2000_107223)">
<path d="M156.045 130.259H91.1628V130.579H134.409C137.482 130.579 140.423 131.131 143.141 132.144H143.143C143.516 132.283 143.883 132.429 144.247 132.586C145.087 132.944 145.901 133.348 146.69 133.793C147.18 134.069 147.661 134.363 148.129 134.671C149.129 135.328 150.078 136.054 150.969 136.844L150.971 136.846C151.011 136.88 151.049 136.913 151.088 136.95C156.167 141.499 159.362 148.097 159.362 155.437V173.421C159.362 173.46 159.362 173.498 159.36 173.536C159.315 174.855 158.494 175.955 157.405 175.679C155.547 175.207 153.66 174.86 151.743 174.86H62.5033C58.7912 174.86 55.0183 175.213 51.5706 176.586C51.4552 176.632 51.3479 176.604 51.2421 176.57C51.1924 176.554 51.1427 176.538 51.093 176.519V176.856C51.4552 176.977 51.8415 177.044 52.2454 177.044H156.045C158.009 177.044 159.615 175.484 159.679 173.544C159.682 173.503 159.682 173.463 159.682 173.421V133.883C159.682 131.885 158.05 130.259 156.045 130.259Z" fill="#5451F8"/>
<path d="M92.9497 202.631L90.516 202.996L87.9443 193.818L91.5361 193.279L92.9497 202.631Z" fill="#9B51F8"/>
<path d="M93.4178 205.147L85.9341 206.27L85.9198 206.175C85.6776 204.573 86.7852 203.078 88.3939 202.836L88.3941 202.836L89.6048 201.598L92.3115 202.249L92.9648 202.151L93.4178 205.147H93.4178Z" fill="#060538"/>
<path d="M113.181 200.675L110.974 201.761L105.719 193.8L108.975 192.196L113.181 200.675Z" fill="#9B51F8"/>
<path d="M114.396 202.929L107.611 206.27L107.569 206.184C106.848 204.731 107.446 202.971 108.904 202.253L108.905 202.253L109.679 200.706L112.456 200.504L113.048 200.213L114.396 202.929L114.396 202.929Z" fill="#060538"/>
<path d="M118.386 175.523L118.426 160.505L122.016 159.558L120.973 175.46C121.269 175.695 121.503 176.014 121.631 176.398C121.981 177.45 121.408 178.586 120.351 178.935C119.295 179.283 118.155 178.713 117.805 177.66C117.543 176.873 117.798 176.039 118.386 175.523Z" fill="#9B51F8"/>
<path d="M95.4735 171.566L96.133 156.563L99.7591 155.764L98.0615 171.61C98.3474 171.856 98.5679 172.184 98.6797 172.573C98.986 173.639 98.3669 174.751 97.297 175.056C96.2272 175.361 95.1116 174.744 94.8053 173.678C94.5762 172.881 94.8653 172.058 95.4735 171.566Z" fill="#9B51F8"/>
<path d="M105.49 176.946L96.1402 180.003L90.6636 181.792C92.9618 185.804 92.7591 198.146 92.5804 199.171H87.7969C87.7508 198.25 84.3631 186.206 83.3605 180.751C82.0558 173.653 88.1777 171.853 88.1777 171.853L97.0203 168.346L102.564 166.954L106.945 165.854C107.143 166.228 107.316 166.593 107.466 166.95C107.467 166.951 107.467 166.953 107.468 166.954C110.119 173.28 105.49 176.946 105.49 176.946Z" fill="#060538"/>
<path d="M117.683 171.259C117.549 173.314 116.69 174.705 116.69 174.705L104.407 184.291C106.873 186.38 112.819 196.686 113.344 198.053L107.992 198.851C107.405 197.769 98.1022 187.356 97.1839 185.79C95.9936 183.759 95.826 181.766 96.1402 180.003C96.7895 176.352 99.5062 173.68 99.5062 173.68L106.244 167.519L107.457 166.954L107.466 166.95L114.267 163.782C115.441 164.844 116.242 165.916 116.774 166.954C117.361 168.1 117.619 169.203 117.683 170.199C117.707 170.568 117.705 170.922 117.683 171.259H117.683Z" fill="#060538"/>
<path d="M111.662 139.36L104.938 139.16L102.93 141.559C101 141.783 99.3033 142.528 97.9125 143.959C97.9125 143.959 99.0173 146.904 98.7153 153.157C98.5579 156.417 99.3017 162.421 99.2171 164.755C99.1418 166.833 99.4561 167.76 99.5182 167.754C99.7837 167.728 101.024 167.054 103.533 167.854C106.042 168.654 117.022 166.944 117.022 166.944L116.278 162.155L117.206 159.148L117.583 143.159C115.475 142.259 114.371 141.959 112.364 141.959L111.662 139.36V139.36Z" fill="#5451F8"/>
<path d="M115.505 144.395L117.482 143.159C117.482 143.159 121.095 142.559 120.794 149.458C120.794 149.458 122.774 154.427 122.654 158.761C122.646 159.03 122.376 159.428 122.606 159.558C123.094 159.836 122.862 160.099 122.5 160.355L117.963 161.364C117.559 160.984 117.353 160.629 117.679 160.341C117.312 160.208 117.218 160.025 117.52 159.769C117.352 159.737 117.275 159.636 117.41 159.373L115.174 154.657L115.505 144.395Z" fill="#5451F8"/>
<path d="M100.188 144.853L98.0503 143.918C98.0503 143.918 94.3882 143.85 95.6981 150.631C95.6981 150.631 94.596 155.297 95.1198 159.418C95.1314 159.509 95.2162 159.621 95.157 159.691C94.9577 159.928 94.9336 160.161 95.2773 160.39C95.3965 160.469 95.4381 160.683 95.3682 160.806C95.1431 161.201 95.302 161.459 95.6093 161.66L100.955 163.507L102.372 152.361L100.188 144.853Z" fill="#5451F8"/>
<path d="M107.623 138.643C110.763 138.643 113.31 136.106 113.31 132.977C113.31 129.849 110.763 127.312 107.623 127.312C104.482 127.312 101.936 129.849 101.936 132.977C101.936 136.106 104.482 138.643 107.623 138.643Z" fill="#9B51F8"/>
<path d="M112.959 136.761C112.89 136.889 112.689 137.063 112.418 137.255C112.11 137.473 111.712 137.715 111.317 137.946C111.317 137.946 109.887 137.792 110.45 137.037C110.513 136.954 110.572 136.861 110.626 136.763C110.822 136.401 110.918 135.977 110.669 135.675C110.485 135.452 110.136 135.386 109.882 135.527C109.629 135.666 109.722 135.665 109.625 135.638C109.388 135.366 109.004 135.492 109.004 135.492C109.004 135.492 109.302 134.819 109.537 134.532C109.774 134.246 110.018 133.931 110.042 133.561C110.067 133.207 109.886 132.874 109.712 132.566C109.523 132.233 109.336 131.902 109.147 131.568C109.083 131.456 109.02 131.343 108.95 131.234C108.274 130.167 106.079 131.252 104.813 131.206C103.548 131.159 103.121 129.624 102.368 130.638C102.186 129.836 102.05 129.212 101.869 128.525C101.704 127.895 102.413 127.377 102.952 127.745C102.957 127.748 102.959 127.751 102.964 127.753C103.039 127.66 103.095 127.554 103.132 127.44C103.157 127.361 103.197 127.289 103.245 127.228C103.426 127.355 103.607 127.481 103.787 127.608C103.753 127.392 103.681 127.184 103.578 126.991C103.736 126.937 103.914 126.938 104.081 127.007L104.382 127.129C104.472 127.048 104.538 126.947 104.583 126.835C104.702 126.525 105.008 126.336 105.34 126.367C105.877 126.418 105.169 126.301 105.703 126.178C106.522 125.989 107.433 125.808 108.162 126.229C109.252 126.856 110.076 127.317 111.999 127.476C112.961 128.115 113.375 129.652 113.67 130.423C113.905 131.035 114.08 132.245 113.831 132.853C113.202 134.388 113.737 135.295 112.959 136.761L112.959 136.761Z" fill="#060538"/>
<path d="M73.2041 206.193C73.2041 206.299 73.2891 206.383 73.3948 206.383H134.828C134.934 206.383 135.019 206.299 135.019 206.193C135.019 206.088 134.934 206.003 134.828 206.003H73.3948C73.2891 206.003 73.2041 206.088 73.2041 206.193Z" fill="#A0A4A8"/>
</g>
<rect x="25" y="64" width="30" height="30" rx="15" fill="#51A8F8"/>
<path fill-rule="evenodd" clip-rule="evenodd" d="M36.6052 76.179L32.8334 80.8558C31.303 82.7533 31.5843 85.5521 33.4617 87.1071C35.339 88.6621 38.1015 88.3844 39.6318 86.4869L43.4036 81.8102L36.6052 76.179Z" fill="#FCFCFF"/>
<mask id="path-23-inside-1_2000_107223" fill="white">
<path fill-rule="evenodd" clip-rule="evenodd" d="M43.3948 81.821L47.1666 77.1442C48.697 75.2467 48.4157 72.4479 46.5383 70.8929C44.661 69.3379 41.8985 69.6156 40.3682 71.5131L36.5964 76.1898L43.3948 81.821Z"/>
</mask>
<path fill-rule="evenodd" clip-rule="evenodd" d="M43.3948 81.821L47.1666 77.1442C48.697 75.2467 48.4157 72.4479 46.5383 70.8929C44.661 69.3379 41.8985 69.6156 40.3682 71.5131L36.5964 76.1898L43.3948 81.821Z" fill="#51A8F8"/>
<path d="M47.1666 77.1442L46.3964 76.5065L47.1666 77.1442ZM43.3948 81.821L42.7668 82.5993L43.5371 83.2373L44.1651 82.4588L43.3948 81.821ZM46.5383 70.8929L45.9104 71.6712L46.5383 70.8929ZM40.3682 71.5131L39.5979 70.8753L39.5979 70.8753L40.3682 71.5131ZM36.5964 76.1898L35.8261 75.552L35.1985 76.3302L35.9685 76.968L36.5964 76.1898ZM46.3964 76.5065L42.6245 81.1833L44.1651 82.4588L47.9369 77.7819L46.3964 76.5065ZM45.9104 71.6712C47.3625 72.8739 47.5801 75.0388 46.3964 76.5065L47.9369 77.7819C49.8139 75.4546 49.4689 72.0219 47.1663 70.1146L45.9104 71.6712ZM41.1384 72.1508C42.322 70.6832 44.4584 70.4685 45.9104 71.6712L47.1663 70.1146C44.8635 68.2073 41.475 68.5479 39.5979 70.8753L41.1384 72.1508ZM37.3667 76.8275L41.1384 72.1508L39.5979 70.8753L35.8261 75.552L37.3667 76.8275ZM35.9685 76.968L42.7668 82.5993L44.0228 81.0428L37.2244 75.4115L35.9685 76.968Z" fill="#FCFCFF" mask="url(#path-23-inside-1_2000_107223)"/>
<path d="M40.9929 74.5005C42.4797 72.7981 42.7865 72.2772 44.2412 72.5153" stroke="#FCFCFF"/>
<path d="M39.3011 84.6916C37.8144 86.394 37.5076 86.9149 36.0529 86.6768" stroke="#51A8F8"/>
<rect x="73" y="38" width="30" height="30" rx="15" fill="#9B51F8"/>
<path d="M93.9167 51.92C93.9167 55.2031 90.658 58.0899 86.3333 58.0899C86.0581 58.0899 85.8229 58.2 85.6752 58.2822C85.5112 58.3736 85.3504 58.4912 85.2037 58.6091C84.9319 58.8275 84.6351 59.1074 84.3656 59.3616C84.3457 59.3803 84.3261 59.3988 84.3066 59.4172C84.1077 59.6045 83.9252 59.775 83.7605 59.9176C83.7562 59.8175 83.7528 59.7082 83.7496 59.5898C83.749 59.5679 83.7484 59.5455 83.7478 59.5229C83.7398 59.2201 83.7303 58.8614 83.6871 58.5622C83.6638 58.4013 83.6246 58.2085 83.546 58.0288C83.4707 57.8568 83.3099 57.5865 82.9811 57.454C80.4098 56.4182 78.75 54.2829 78.75 51.92C78.75 48.6368 82.0087 45.75 86.3333 45.75C90.658 45.75 93.9167 48.6368 93.9167 51.92ZM83.2822 60.2667C83.2823 60.2665 83.2856 60.265 83.292 60.2631C83.2853 60.266 83.2821 60.267 83.2822 60.2667Z" stroke="#FCFCFF" stroke-width="1.5"/>
<path d="M86.3333 54.8386C86.3333 57.4319 88.945 59.5343 92.1667 59.5343C92.63 59.5343 93.8286 61.079 94.2607 60.9969C94.6787 60.9174 94.3315 59.2134 94.7094 59.0659C96.6571 58.3053 98 56.6982 98 54.8386C98 52.2452 95.3883 50.1429 92.1667 50.1429C88.945 50.1429 86.3333 52.2452 86.3333 54.8386Z" fill="#FCFCFF"/>
<rect x="122" y="53" width="30" height="30" rx="15" fill="#EF6068"/>
<path d="M142.064 74.1928C143.593 72.9428 144.605 71.1715 144.906 69.2199C145.208 67.2683 144.776 65.2743 143.695 63.6216C142.615 61.9689 140.961 60.7743 139.052 60.2677C137.144 59.7611 135.115 59.9783 133.357 60.8775C131.599 61.7767 130.236 63.2944 129.529 65.1384C128.823 66.9824 128.824 69.0226 129.531 70.8662C130.239 72.7098 131.603 74.2266 133.361 75.1247C135.12 76.0228 137.149 76.2388 139.057 75.731L138.735 74.5205C137.125 74.9487 135.414 74.7666 133.931 74.0091C132.448 73.2516 131.297 71.9723 130.701 70.4174C130.104 68.8624 130.103 67.1418 130.699 65.5865C131.295 64.0312 132.445 62.7512 133.928 61.9928C135.41 61.2344 137.121 61.0512 138.731 61.4785C140.341 61.9057 141.736 62.9133 142.647 64.3072C143.559 65.7011 143.922 67.3829 143.668 69.0289C143.414 70.6749 142.561 72.1688 141.271 73.2232L142.064 74.1928Z" fill="#FCFCFF"/>
<circle cx="137" cy="68" r="1" fill="#FCFCFF"/>
<rect x="133" y="64.4699" width="0.666667" height="5.22422" rx="0.333333" transform="rotate(-44.8115 133 64.4699)" fill="#FCFCFF"/>
<rect x="137.667" y="68.3333" width="0.666667" height="4" rx="0.333333" transform="rotate(-90 137.667 68.3333)" fill="#FCFCFF"/>
<path d="M140.876 72L143.14 74.4463C143.14 74.4463 141.22 75.3156 140.54 74.5816C139.926 73.7406 140.876 72 140.876 72Z" fill="#FCFCFF"/>
<defs>
<clipPath id="clip0_2000_107223">
<rect width="108.589" height="80.4109" fill="white" transform="translate(51.093 125.972)"/>
</clipPath>
</defs>
</svg>
