<svg width="253" height="38" viewBox="0 0 253 38" fill="none" xmlns="http://www.w3.org/2000/svg">
<path d="M31.6666 33.25V30.0833C31.6666 28.4036 30.9993 26.7927 29.8116 25.605C28.6239 24.4173 27.013 23.75 25.3333 23.75H12.6666C10.9869 23.75 9.37597 24.4173 8.18824 25.605C7.00051 26.7927 6.33325 28.4036 6.33325 30.0833V33.25" stroke="#545454" stroke-width="3" stroke-linecap="round" stroke-linejoin="round"/>
<path d="M19.0001 17.4167C22.4979 17.4167 25.3334 14.5811 25.3334 11.0833C25.3334 7.58553 22.4979 4.75 19.0001 4.75C15.5023 4.75 12.6667 7.58553 12.6667 11.0833C12.6667 14.5811 15.5023 17.4167 19.0001 17.4167Z" stroke="#545454" stroke-width="3" stroke-linecap="round" stroke-linejoin="round"/>
<path d="M245.733 32.1417V29.0806C245.733 27.4569 245.066 25.8997 243.878 24.7515C242.691 23.6034 241.08 22.9584 239.4 22.9584H226.733C225.054 22.9584 223.443 23.6034 222.255 24.7515C221.067 25.8997 220.4 27.4569 220.4 29.0806V32.1417" stroke="#469C97" stroke-width="3" stroke-linecap="round" stroke-linejoin="round"/>
<path d="M233.067 16.8361C236.565 16.8361 239.4 14.0951 239.4 10.7139C239.4 7.33269 236.565 4.59167 233.067 4.59167C229.569 4.59167 226.733 7.33269 226.733 10.7139C226.733 14.0951 229.569 16.8361 233.067 16.8361Z" stroke="#469C97" stroke-width="3" stroke-linecap="round" stroke-linejoin="round"/>
<path d="M102.6 33.25V30.0833C102.6 28.4036 101.933 26.7927 100.745 25.605C99.5572 24.4173 97.9463 23.75 96.2666 23.75H83.5999C81.9202 23.75 80.3093 24.4173 79.1216 25.605C77.9339 26.7927 77.2666 28.4036 77.2666 30.0833V33.25" stroke="#469C97" stroke-width="3" stroke-linecap="round" stroke-linejoin="round"/>
<path d="M89.9334 17.4167C93.4312 17.4167 96.2668 14.5811 96.2668 11.0833C96.2668 7.58553 93.4312 4.75 89.9334 4.75C86.4356 4.75 83.6001 7.58553 83.6001 11.0833C83.6001 14.5811 86.4356 17.4167 89.9334 17.4167Z" stroke="#469C97" stroke-width="3" stroke-linecap="round" stroke-linejoin="round"/>
<path d="M174.8 33.25V30.0833C174.8 28.4036 174.133 26.7927 172.945 25.605C171.757 24.4173 170.146 23.75 168.467 23.75H155.8C154.12 23.75 152.509 24.4173 151.322 25.605C150.134 26.7927 149.467 28.4036 149.467 30.0833V33.25" stroke="#469C97" stroke-width="3" stroke-linecap="round" stroke-linejoin="round"/>
<path d="M162.133 17.4167C165.631 17.4167 168.467 14.5811 168.467 11.0833C168.467 7.58553 165.631 4.75 162.133 4.75C158.636 4.75 155.8 7.58553 155.8 11.0833C155.8 14.5811 158.636 17.4167 162.133 17.4167Z" stroke="#469C97" stroke-width="3" stroke-linecap="round" stroke-linejoin="round"/>
</svg>
