<svg width="80" height="80" viewBox="0 0 80 80" fill="none" xmlns="http://www.w3.org/2000/svg">
<path d="M40 5.5625C44.5224 5.5625 49.0005 6.45325 53.1787 8.1839C57.3568 9.91454 61.1532 12.4512 64.351 15.649C67.5488 18.8468 70.0855 22.6432 71.8161 26.8213C73.5467 30.9995 74.4375 35.4776 74.4375 40C74.4375 44.5224 73.5467 49.0005 71.8161 53.1787C70.0855 57.3568 67.5488 61.1532 64.351 64.351C61.1532 67.5488 57.3568 70.0855 53.1787 71.8161C49.0005 73.5467 44.5224 74.4375 40 74.4375C35.4776 74.4375 30.9995 73.5467 26.8213 71.8161C22.6432 70.0855 18.8468 67.5488 15.649 64.351C12.4512 61.1532 9.91454 57.3568 8.1839 53.1787C6.45325 49.0005 5.5625 44.5224 5.5625 40C5.5625 35.4776 6.45325 30.9995 8.1839 26.8213C9.91455 22.6432 12.4512 18.8468 15.649 15.649C18.8468 12.4512 22.6432 9.91454 26.8213 8.1839C30.9995 6.45325 35.4776 5.5625 40 5.5625L40 5.5625Z" stroke="#FCFCFF" stroke-width="10" stroke-linecap="round"/>
<path d="M40 5.5625C45.8006 5.5625 51.5073 7.02771 56.5904 9.82219C61.6735 12.6167 65.9684 16.6498 69.0765 21.5475C72.1847 26.4451 74.0053 32.0485 74.3695 37.8377C74.7338 43.6268 73.6298 49.4142 71.16 54.6628C68.6902 59.9113 64.9347 64.451 60.2419 67.8605C55.549 71.27 50.071 73.4389 44.3162 74.1659C38.5613 74.893 32.716 74.1545 27.3227 72.0192C21.9294 69.8838 17.1629 66.4207 13.4654 61.9513" stroke="#5451F8" stroke-width="10" stroke-linecap="round"/>
</svg>
