<svg width="69" height="52" viewBox="0 0 69 52" fill="none" xmlns="http://www.w3.org/2000/svg">
<g clip-path="url(#clip0_1720_92969)">
<path d="M17.5746 30.2565C17.3642 30.2698 17.2479 30.0048 17.4071 29.8503L17.423 29.7865C17.4209 29.7814 17.4188 29.7763 17.4167 29.7712C17.2039 29.2568 16.4828 29.2603 16.2718 29.7755C16.0845 30.2327 15.8461 30.6908 15.7874 31.1742C15.7611 31.3876 15.773 31.605 15.8197 31.8145C15.3809 30.8427 15.15 29.7817 15.15 28.7146C15.15 28.4465 15.1645 28.1783 15.1941 27.9109C15.2184 27.6921 15.252 27.4747 15.2954 27.2593C15.5302 26.0948 16.0387 24.9857 16.7722 24.0594C17.1248 23.8639 17.4188 23.5585 17.5964 23.1923C17.6602 23.0603 17.7102 22.9182 17.7339 22.7735C17.6938 22.7788 17.5826 22.1593 17.6129 22.1212C17.5569 22.0352 17.4568 21.9924 17.3958 21.9085C17.092 21.491 16.6736 21.5639 16.4551 22.1313C15.9884 22.3701 15.9839 22.7661 16.2703 23.147C16.4524 23.3893 16.4775 23.7172 16.6373 23.9767C16.6209 23.998 16.6038 24.0187 16.5873 24.04C16.2858 24.4322 16.0249 24.8537 15.8051 25.2965C15.8672 24.8044 15.7755 24.2115 15.619 23.8293C15.441 23.3938 15.1073 23.027 14.8134 22.6506C14.4604 22.1984 13.7366 22.3957 13.6744 22.9689C13.6738 22.9745 13.6732 22.98 13.6726 22.9856C13.7162 23.0106 13.759 23.0371 13.8008 23.0651C14.0391 23.2249 13.9567 23.5993 13.6744 23.6435L13.668 23.6445C13.6838 23.8039 13.7108 23.962 13.7502 24.1174C13.3732 25.5956 14.1872 26.134 15.3493 26.1582C15.375 26.1715 15.4 26.1849 15.4257 26.1976C15.3079 26.5337 15.2138 26.8785 15.1441 27.228C15.0816 27.5368 15.0382 27.8489 15.0139 28.1623C14.9836 28.5578 14.9862 28.9553 15.0191 29.3501L15.0172 29.3361C14.9336 28.9013 14.7008 28.4951 14.3626 28.2137C13.859 27.7942 13.1473 27.6397 12.604 27.3025C12.3424 27.1402 12.0072 27.35 12.0529 27.6574L12.0551 27.6721C12.136 27.7055 12.2149 27.7442 12.2912 27.7875C12.3349 27.8125 12.3776 27.839 12.4194 27.867C12.6577 28.0268 12.5753 28.4013 12.293 28.4455L12.2866 28.4465C12.282 28.4471 12.2781 28.4478 12.2735 28.4485C12.4123 28.7826 12.6056 29.0927 12.8477 29.3602C13.0835 30.6506 14.0959 30.773 15.179 30.3972H15.1796C15.298 30.9201 15.471 31.431 15.6934 31.9178H17.5286C17.5352 31.8972 17.5411 31.8758 17.5471 31.8552C17.3774 31.8658 17.2063 31.8558 17.0392 31.8245C17.1754 31.6551 17.3116 31.4843 17.4477 31.3149C17.451 31.3116 17.4537 31.3083 17.4563 31.3049C17.5254 31.2182 17.5951 31.1322 17.6642 31.0455L17.6642 31.0454C17.6685 30.7792 17.637 30.514 17.5747 30.2565L17.5746 30.2565L17.5746 30.2565V30.2565Z" fill="#FCFCFF"/>
<path d="M61.1062 27.5242C60.5498 27.5596 60.2423 26.8586 60.6632 26.4501L60.7051 26.2813C60.6996 26.2678 60.6941 26.2543 60.6885 26.2408C60.1258 24.8804 58.2187 24.8898 57.6608 26.2522C57.1656 27.4614 56.5351 28.6727 56.3798 29.9513C56.3103 30.5156 56.3416 31.0906 56.4651 31.6445C55.3048 29.0747 54.6942 26.2686 54.6942 23.4466C54.6942 22.7375 54.7324 22.0285 54.8107 21.3212C54.8751 20.7427 54.9638 20.1677 55.0786 19.598C55.6997 16.5185 57.0444 13.5854 58.984 11.1355C59.9165 10.6187 60.6941 9.81094 61.1638 8.84265C61.3325 8.49341 61.4647 8.11773 61.5273 7.735C61.4212 7.74911 61.1272 6.11057 61.2073 6.01004C61.0594 5.78253 60.7947 5.66942 60.6332 5.44742C59.8299 4.34327 58.7233 4.53606 58.1455 6.03651C56.9114 6.66804 56.8994 7.7154 57.6567 8.7227C58.1385 9.36356 58.2047 10.2307 58.6274 10.9168C58.5839 10.9732 58.5387 11.0279 58.4952 11.0844C57.6977 12.1215 57.0079 13.2362 56.4264 14.4073C56.5908 13.1058 56.3481 11.5378 55.9345 10.527C55.4636 9.37538 54.5811 8.40547 53.8039 7.40987C52.8704 6.21401 50.9561 6.73591 50.7917 8.25185C50.7901 8.26652 50.7885 8.28119 50.787 8.29586C50.9024 8.36189 51.0155 8.43203 51.126 8.50611C51.7561 8.92863 51.5383 9.91896 50.7917 10.0358L50.7748 10.0385C50.8166 10.46 50.8879 10.878 50.9923 11.289C49.9952 15.1983 52.1478 16.6221 55.2213 16.6861C55.2891 16.7213 55.3552 16.7566 55.4231 16.7901C55.1117 17.6791 54.8629 18.5909 54.6785 19.5151C54.5132 20.3317 54.3984 21.1572 54.3341 21.9861C54.254 23.032 54.261 24.0832 54.348 25.1274L54.3428 25.0904C54.1218 23.9404 53.506 22.8663 52.6119 22.1219C51.2798 21.0125 49.3979 20.604 47.9609 19.7123C47.2691 19.283 46.3827 19.8377 46.5034 20.6508L46.5093 20.6898C46.7233 20.778 46.932 20.8803 47.1338 20.9949C47.2493 21.0609 47.3624 21.1311 47.4728 21.2051C48.1029 21.6277 47.8852 22.618 47.1386 22.7349L47.1216 22.7375C47.1095 22.7393 47.099 22.741 47.0869 22.7428C47.4539 23.6264 47.9654 24.4466 48.6055 25.1539C49.229 28.5665 51.9065 28.8903 54.7707 27.8965H54.7724C55.0856 29.2793 55.5431 30.6303 56.1311 31.9178H60.9846C61.002 31.8632 61.0176 31.8067 61.0333 31.752C60.5845 31.7803 60.1322 31.7538 59.6903 31.6709C60.0504 31.2229 60.4105 30.7714 60.7706 30.3234C60.7793 30.3146 60.7863 30.3058 60.7932 30.297C60.9759 30.0677 61.1603 29.8401 61.3429 29.6109L61.343 29.6106C61.3545 28.9067 61.2713 28.2052 61.1064 27.5243L61.1062 27.5242L61.1062 27.5242H61.1062Z" fill="#FCFCFF"/>
<path d="M2.31087 2.77244H43.5387V2.97896H16.0589C14.1066 2.97896 12.2377 3.33624 10.5104 3.9909H10.5094C10.2721 4.08073 10.0389 4.17573 9.80767 4.27693C9.27401 4.50822 8.75663 4.76947 8.25556 5.05756C7.94391 5.2362 7.63837 5.4262 7.34099 5.62549C6.70548 6.04988 6.10255 6.5197 5.53629 7.03084L5.53527 7.03187C5.50981 7.05356 5.48537 7.07524 5.46093 7.09898C2.23346 10.0408 0.20369 14.3075 0.20369 19.0543V30.6843C0.20369 30.7091 0.20369 30.7339 0.204712 30.7587C0.233223 31.6116 0.754669 32.323 1.44722 32.1444C2.6276 31.8388 3.82632 31.6147 5.04439 31.6147H61.7497C64.1084 31.6147 66.5058 31.8429 68.6965 32.7309C68.7698 32.7609 68.8381 32.7423 68.9053 32.7206C68.9369 32.7103 68.9684 32.6999 69 32.6876V32.9054C68.7698 32.9839 68.5244 33.0273 68.2677 33.0273H2.31087C1.06326 33.0273 0.0427704 32.0184 0.00203705 30.7638C0 30.737 0 30.7112 0 30.6843V5.11539C0 3.82362 1.03678 2.77244 2.31087 2.77244Z" fill="#FCFCFF"/>
<path d="M42.4035 49.5733L43.9499 49.8093L45.584 43.8743L43.3017 43.5259L42.4035 49.5733Z" fill="#EF6068"/>
<path d="M42.1061 51.2005L46.8614 51.9266L46.8705 51.8657C47.0244 50.8293 46.3206 49.8626 45.2984 49.7064L45.2983 49.7064L44.529 48.9056L42.809 49.3263L42.3939 49.2629L42.1061 51.2005H42.1061Z" fill="#16153B"/>
<path d="M29.548 48.3083L30.9499 49.0107L34.2896 43.8625L32.2204 42.8257L29.548 48.3083Z" fill="#EF6068"/>
<path d="M28.7759 49.7664L33.087 51.9266L33.114 51.8714C33.5719 50.9318 33.192 49.7937 32.2653 49.3292L32.2652 49.3292L31.773 48.3288L30.0085 48.1983L29.6321 48.0098L28.7759 49.7664L28.7759 49.7664Z" fill="#16153B"/>
<path d="M26.2406 32.0431L26.2149 22.3318L23.9337 21.7195L24.5964 32.0027C24.4084 32.1543 24.2599 32.3606 24.1787 32.6091C23.9563 33.2897 24.3202 34.0241 24.9915 34.2496C25.6628 34.475 26.3872 34.1061 26.6095 33.4255C26.7759 32.9162 26.6139 32.3769 26.2406 32.0431Z" fill="#EF6068"/>
<path d="M40.7996 29.4846L40.3805 19.7825L38.0764 19.2657L39.1551 29.5127C38.9734 29.672 38.8334 29.8843 38.7623 30.1359C38.5677 30.8252 38.9611 31.5439 39.6409 31.7412C40.3207 31.9385 41.0296 31.5397 41.2242 30.8504C41.3698 30.3347 41.1861 29.8025 40.7996 29.4846Z" fill="#EF6068"/>
<path d="M34.4351 32.9638L40.3759 34.9403L43.8558 36.0977C42.3955 38.6916 42.5243 46.6731 42.6378 47.3358H45.6774C45.7067 46.7404 47.8593 38.9522 48.4964 35.4246C49.3254 30.8341 45.4354 29.6703 45.4354 29.6703L39.8166 27.4022L36.294 26.5021L33.5104 25.7909C33.3842 26.0327 33.2745 26.2687 33.1795 26.4996C33.1788 26.5002 33.1788 26.5015 33.1782 26.5021C31.4934 30.5929 34.4351 32.9638 34.4351 32.9638Z" fill="#16153B"/>
<path d="M26.6873 29.2862C26.7728 30.6149 27.3187 31.5142 27.3187 31.5142L35.1235 37.7134C33.5566 39.0647 29.7781 45.7292 29.4446 46.613L32.8452 47.1293C33.2183 46.4291 39.1295 39.6957 39.713 38.6826C40.4693 37.3694 40.5758 36.0808 40.3762 34.9403C39.9636 32.5798 38.2374 30.8515 38.2374 30.8515L33.9559 26.8675L33.1855 26.5022L33.1798 26.4996L28.8581 24.4506C28.112 25.1373 27.6031 25.831 27.2651 26.5022C26.892 27.2431 26.7281 27.9562 26.6873 28.6002C26.672 28.8394 26.6733 29.0683 26.6873 29.2862H26.6873Z" fill="#16153B"/>
<path d="M30.5135 8.65726L34.7861 8.52795L36.0615 10.0797C37.288 10.2244 38.3662 10.7065 39.25 11.6314C39.25 11.6314 38.548 13.536 38.7398 17.5797C38.8399 19.6879 38.3672 23.5706 38.421 25.0797C38.4689 26.4238 38.2691 27.0234 38.2297 27.0194C38.061 27.0023 37.2731 26.5668 35.6789 27.084C34.0846 27.6013 27.1072 26.4955 27.1072 26.4955L27.5801 23.3987L26.9905 21.4538L26.7511 11.1142C28.0902 10.5323 28.7917 10.3383 30.0671 10.3383L30.5135 8.65726V8.65726Z" fill="#5451F8"/>
<path d="M28.0714 11.9138L26.8145 11.1142C26.8145 11.1142 24.5188 10.7262 24.7101 15.1875C24.7101 15.1875 23.4522 18.4013 23.5287 21.204C23.5334 21.3777 23.7048 21.6349 23.5589 21.7195C23.2489 21.8991 23.3961 22.0693 23.626 22.2349L26.509 22.8869C26.7661 22.6414 26.8969 22.412 26.6897 22.2254C26.9231 22.1397 26.9823 22.0212 26.7907 21.8555C26.8976 21.8352 26.9466 21.7698 26.8606 21.5996L28.2812 18.5495L28.0714 11.9138Z" fill="#5451F8"/>
<path d="M37.8039 12.2097L39.1625 11.6048C39.1625 11.6048 41.4895 11.5613 40.6571 15.9462C40.6571 15.9462 41.3574 18.964 41.0245 21.6287C41.0172 21.6877 40.9633 21.7598 41.0009 21.8052C41.1276 21.9582 41.1428 22.1092 40.9245 22.2569C40.8487 22.3082 40.8223 22.4467 40.8667 22.5261C41.0098 22.7819 40.9088 22.9486 40.7135 23.0786L37.3164 24.2726L36.4165 17.0648L37.8039 12.2097Z" fill="#5451F8"/>
<path d="M33.0799 8.19379C31.0842 8.19379 29.4664 6.55352 29.4664 4.53015C29.4664 2.50677 31.0842 0.866504 33.0799 0.866504C35.0755 0.866504 36.6934 2.50677 36.6934 4.53015C36.6934 6.55352 35.0755 8.19379 33.0799 8.19379Z" fill="#EF6068"/>
<path d="M29.6893 6.97666C29.733 7.05977 29.8607 7.1719 30.0328 7.29622C30.2287 7.4375 30.4814 7.59394 30.7323 7.74341C30.7323 7.74341 31.6412 7.64365 31.2835 7.15558C31.2434 7.10144 31.2059 7.04123 31.1718 6.97793C31.0469 6.74398 30.986 6.46964 31.1443 6.27441C31.2614 6.13027 31.4833 6.08755 31.6443 6.17858C31.8051 6.26861 31.7457 6.26805 31.8076 6.25076C31.9584 6.07475 32.2024 6.15649 32.2024 6.15649C32.2024 6.15649 32.0132 5.72094 31.8636 5.53569C31.7129 5.35072 31.5581 5.14656 31.5428 4.9077C31.527 4.67861 31.6418 4.46339 31.7525 4.2643C31.8724 4.0487 31.9916 3.83436 32.1115 3.61876C32.1521 3.54638 32.1923 3.47301 32.2366 3.40279C32.666 2.71296 34.0611 3.41453 34.8654 3.3847C35.6694 3.35388 35.9404 2.36127 36.4187 3.017C36.5345 2.49839 36.6213 2.09496 36.736 1.65051C36.8408 1.24314 36.3906 0.908386 36.0476 1.14669C36.0449 1.14851 36.0432 1.15006 36.0406 1.15188C35.9924 1.09142 35.957 1.02314 35.9337 0.949308C35.9177 0.898091 35.8924 0.85161 35.8615 0.812026C35.7466 0.894486 35.6314 0.975944 35.5175 1.05813C35.5386 0.918332 35.5844 0.783445 35.6499 0.659102C35.5495 0.623964 35.4366 0.624457 35.3304 0.669126L35.1395 0.748169C35.082 0.695708 35.0399 0.630342 35.0117 0.557878C34.9361 0.357309 34.7412 0.235038 34.5302 0.255451C34.1895 0.288535 34.6393 0.212741 34.2996 0.133071C33.7793 0.0106965 33.2004 -0.105994 32.7376 0.165793C32.045 0.571428 31.5213 0.869383 30.2991 0.972642C29.6881 1.38568 29.4251 2.37943 29.2375 2.8785C29.0882 3.27368 28.9768 4.05674 29.1353 4.44944C29.5351 5.44202 29.1949 6.02872 29.6892 6.97666L29.6893 6.97666Z" fill="#16153B"/>
<path d="M21.183 50.2102C20.9726 50.2236 20.8564 49.9585 21.0155 49.8041L21.0314 49.7402C21.0293 49.7351 21.0272 49.73 21.0251 49.7249C20.8123 49.2105 20.0912 49.214 19.8802 49.7292C19.6929 50.1865 19.4545 50.6445 19.3958 51.128C19.3695 51.3414 19.3814 51.5588 19.4281 51.7682C18.9893 50.7965 18.7584 49.7354 18.7584 48.6683C18.7584 48.4002 18.7729 48.1321 18.8025 47.8646C18.8268 47.6459 18.8604 47.4285 18.9038 47.213C19.1386 46.0486 19.6471 44.9395 20.3806 44.0131C20.7332 43.8177 21.0272 43.5122 21.2048 43.1461C21.2686 43.014 21.3186 42.872 21.3423 42.7272C21.3022 42.7326 21.191 42.113 21.2213 42.075C21.1653 41.9889 21.0652 41.9462 21.0042 41.8622C20.7004 41.4447 20.282 41.5176 20.0635 42.085C19.5968 42.3238 19.5923 42.7198 19.8787 43.1007C20.0608 43.3431 20.0859 43.671 20.2457 43.9304C20.2293 43.9517 20.2122 43.9724 20.1957 43.9938C19.8942 44.3859 19.6333 44.8074 19.4135 45.2503C19.4756 44.7581 19.3839 44.1652 19.2274 43.783C19.0494 43.3475 18.7157 42.9808 18.4218 42.6043C18.0688 42.1521 17.345 42.3495 17.2828 42.9227C17.2822 42.9282 17.2816 42.9338 17.281 42.9393C17.3247 42.9643 17.3674 42.9908 17.4092 43.0188C17.6475 43.1786 17.5651 43.5531 17.2828 43.5973L17.2764 43.5983C17.2922 43.7577 17.3192 43.9157 17.3586 44.0711C16.9816 45.5494 17.7956 46.0878 18.9577 46.1119C18.9834 46.1253 19.0084 46.1386 19.0341 46.1513C18.9163 46.4874 18.8222 46.8322 18.7525 47.1817C18.69 47.4905 18.6466 47.8026 18.6223 48.1161C18.592 48.5116 18.5946 48.9091 18.6275 49.3039L18.6256 49.2899C18.542 48.855 18.3092 48.4489 17.971 48.1674C17.4674 47.7479 16.7557 47.5934 16.2124 47.2562C15.9508 47.0939 15.6156 47.3037 15.6613 47.6112L15.6635 47.6259C15.7444 47.6592 15.8233 47.6979 15.8996 47.7413C15.9433 47.7662 15.986 47.7927 16.0278 47.8208C16.2661 47.9805 16.1837 48.355 15.9014 48.3992L15.895 48.4002C15.8904 48.4009 15.8865 48.4015 15.8819 48.4022C16.0207 48.7363 16.214 49.0465 16.4561 49.3139C16.6919 50.6043 17.7043 50.7268 18.7874 50.351H18.788C18.9064 50.8739 19.0794 51.3847 19.3018 51.8716H21.137C21.1436 51.8509 21.1495 51.8296 21.1555 51.8089C20.9858 51.8196 20.8147 51.8096 20.6476 51.7782C20.7838 51.6088 20.92 51.4381 21.0561 51.2687C21.0594 51.2653 21.0621 51.262 21.0647 51.2587C21.1338 51.172 21.2035 51.0859 21.2726 50.9992L21.2726 50.9991C21.2769 50.733 21.2454 50.4677 21.1831 50.2103L21.183 50.2102Z" fill="#FCFCFF"/>
<path d="M54.9502 51.8771C54.9502 51.9453 54.8962 52 54.829 52H15.7928C15.7256 52 15.6716 51.9453 15.6716 51.8771C15.6716 51.809 15.7256 51.7542 15.7928 51.7542H54.829C54.8962 51.7542 54.9502 51.809 54.9502 51.8771Z" fill="#A0A4A8"/>
</g>
<defs>
<clipPath id="clip0_1720_92969">
<rect width="69" height="52" fill="white" transform="matrix(-1 0 0 1 69 0)"/>
</clipPath>
</defs>
</svg>
