<svg width="227" height="110" viewBox="0 0 227 110" fill="none" xmlns="http://www.w3.org/2000/svg">
<path d="M176.366 109.036H179.244C180.608 76.0978 181.59 44.5782 179.244 25.4253H176.366L176.366 109.036Z" fill="#FCFCFF"/>
<path d="M86.9499 68.0864L88.8667 68.8467L73.2547 108.716L71.3379 107.956L86.9499 68.0864Z" fill="#FCFCFF"/>
<path d="M99.6258 107.956L97.709 108.716L82.097 68.8468L84.0138 68.0865L99.6258 107.956Z" fill="#FCFCFF"/>
<path d="M86.2831 75.3735C78.7605 75.3735 72.6623 73.001 72.6623 70.0743C72.6623 67.1477 78.7605 64.7751 86.2831 64.7751C93.8056 64.7751 99.9038 67.1477 99.9038 70.0743C99.9038 73.001 93.8056 75.3735 86.2831 75.3735Z" fill="#FCFCFF"/>
<path d="M74.9176 72.3269L96.7101 69.6964C97.7167 69.5749 98.6897 69.255 99.5734 68.7551C100.457 68.2551 101.234 67.5849 101.861 66.7826C102.487 65.9803 102.95 65.0618 103.224 64.0793C103.498 63.0968 103.577 62.0697 103.456 61.0567C103.335 60.0436 103.017 59.0644 102.521 58.1749C102.024 57.2854 101.358 56.5032 100.561 55.8727C99.7636 55.2423 98.8509 54.776 97.8748 54.5006C96.8986 54.2252 95.8781 54.1459 94.8715 54.2674L73.079 56.898C71.0461 57.1434 69.1934 58.1915 67.9283 59.8117C66.6632 61.432 66.0895 63.4917 66.3333 65.5377C66.5771 67.5837 67.6185 69.4484 69.2284 70.7216C70.8382 71.9949 72.8847 72.5723 74.9176 72.3269Z" fill="#16153B"/>
<path d="M79.1901 17.1676L75.996 20.2858L71.9131 22.1086C72.2697 22.357 74.1495 47.85 71.7274 48.911C69.665 49.8144 71.7669 50.5618 71.6957 52.6647C71.6244 54.7676 71.3575 59.0929 71.3575 59.0929C82.6933 63.4851 87.0934 63.9105 93.6829 56.3744C93.7283 55.952 93.629 55.5265 93.4013 55.1687C93.1736 54.8109 92.8312 54.5421 92.4309 54.4069C90.9697 53.8391 93.2018 50.0962 92.0109 49.6592C90.82 49.2222 91.8072 44.0649 91.8072 44.0649L94.3438 32.4451L94.9648 30.6899L91.7598 20.7953L88.1424 19.9398L86.3581 16.75L79.1901 17.1676Z" fill="#E9E9FA"/>
<path d="M121.896 40.7149C121.55 40.4286 121.144 40.2223 120.71 40.1106C120.275 39.9989 119.821 39.9844 119.38 40.0683C118.94 40.1522 118.522 40.3323 118.158 40.5961C117.794 40.8598 117.492 41.2007 117.272 41.5947L106.535 39.6697L108.777 44.9084L118.63 45.9333C119.312 46.26 120.089 46.3234 120.815 46.1117C121.54 45.9 122.163 45.4277 122.566 44.7845C122.969 44.1412 123.123 43.3717 123 42.6217C122.876 41.8716 122.484 41.1932 121.896 40.7149H121.896Z" fill="#9B51F8"/>
<path d="M110.794 45.3009C109.852 46.281 108.926 46.1634 108.014 45.1461L95.2368 44.4351L95.1975 44.3603C95.1525 44.2746 92.4599 39.1411 90.0716 34.3363C89.7038 33.5964 89.3432 32.8643 89.0006 32.1596C88.8528 31.8554 88.7086 31.5569 88.568 31.2641C87.6199 29.2882 86.8644 27.6179 86.5693 26.7404C85.8866 24.7766 85.8919 22.6369 86.5842 20.6766L86.6041 20.6292L86.6484 20.6034C87.5554 20.0806 88.6123 19.8846 89.6448 20.0476C90.6774 20.2105 91.6239 20.7228 92.3284 21.4998C95.7098 25.2696 98.1743 29.7788 99.5275 34.6716L100.294 37.4556L108.202 39.4271C109.009 38.9891 109.705 39.0977 110.252 39.9382L110.794 45.3009Z" fill="#E9E9FA"/>
<path d="M98.3809 98.0272L95.6673 100.519L84.8254 91.1706L88.8305 87.4927L98.3809 98.0272Z" fill="#9B51F8"/>
<path d="M98.2646 96.4995L97.5008 97.201L93.4122 98.7191L92.9204 101.407L92.9202 101.407C92.0171 102.237 91.4783 103.394 91.4225 104.623C91.3666 105.852 91.7982 107.054 92.6223 107.963L92.7233 108.074L101.473 100.039L98.2646 96.4995Z" fill="#16153B"/>
<path d="M77.824 68.9431L80.1663 64.3913C79.9705 59.7822 75.9984 56.1812 71.4375 56.6406C68.8975 56.8965 66.5664 58.4186 65.7383 62.7148C63.6089 73.7622 89.2996 95.6285 89.2996 95.6285L93.7614 92.6178L93.8613 89.6095L91.2456 88.1185L91.149 85.5596L88.6676 84.4865L77.824 68.9431Z" fill="#16153B"/>
<path d="M77.7572 9.12958C77.3871 5.25493 80.208 1.81195 84.0578 1.43947C87.9076 1.06699 91.3285 3.90606 91.6985 7.78071C92.0686 11.6554 89.2478 15.0983 85.398 15.4708C81.5482 15.8433 78.1273 13.0042 77.7572 9.12958Z" fill="#9B51F8"/>
<path d="M79.0897 97.3359L82.1558 99.3721L91.4185 88.4379L86.893 85.4329L79.0897 97.3359Z" fill="#9B51F8"/>
<path d="M76.3467 99.8078L86.2334 106.373L86.316 106.248C86.9893 105.22 87.2297 103.966 86.9842 102.76C86.7388 101.555 86.0276 100.497 85.0071 99.819L85.0068 99.8188L84.105 97.2406L79.8314 96.382L78.9683 95.8088L76.3467 99.8078Z" fill="#16153B"/>
<path d="M93.1037 68.5017L90.2046 63.7578C89.6845 59.1743 93.0508 54.9945 97.6272 54.7333C100.176 54.5878 102.714 55.7258 104.197 59.8398C108.01 70.4185 86.0175 96.0456 86.0175 96.0456L81.1442 93.7712L80.5799 90.8153L82.9329 88.9324L82.6322 86.3896L84.9172 84.9405L93.1037 68.5017Z" fill="#16153B"/>
<path d="M82.3326 10.1351C82.3261 10.0443 82.3198 9.9532 82.3138 9.86182C82.3437 9.9497 82.3502 10.0439 82.3326 10.1351Z" fill="#16153B"/>
<path d="M76.3077 6.87267C76.5585 5.71575 77.1179 4.64953 77.9258 3.78864C78.7336 2.92776 79.7593 2.30478 80.8926 1.9867C81.2034 1.46303 81.6268 1.01609 82.1317 0.678706C82.6367 0.341327 83.2103 0.122084 83.8104 0.0370731C84.9375 -0.113857 86.0672 0.222484 87.1508 0.569135C87.8204 0.783336 88.4882 1.00295 89.1542 1.22798C89.6965 1.41119 90.363 1.82959 90.1831 2.37609C90.3199 2.30425 90.4766 2.27996 90.6286 2.30699C90.7806 2.33402 90.9195 2.41086 91.0236 2.52555C91.1277 2.64025 91.1912 2.78636 91.2043 2.94116C91.2174 3.09596 91.1792 3.25077 91.0958 3.3815C91.3473 3.05511 91.9288 3.26443 92.0686 3.65272C92.2085 4.04098 92.0438 4.47127 91.8392 4.82931C91.2236 5.84761 90.2898 6.63164 89.1841 7.05862C88.0783 7.48559 86.8631 7.53138 85.7287 7.18882C85.0653 6.97031 84.3874 6.61148 83.7078 6.7718C83.0663 6.92313 82.6047 7.52169 82.422 8.15881C82.2886 8.71598 82.2521 9.29217 82.3141 9.86187C82.2276 9.6596 82.0649 9.5001 81.8617 9.41834C81.6586 9.33659 81.4315 9.33924 81.2303 9.42572C80.7457 9.66884 80.5718 10.3099 80.6919 10.8413C80.8119 11.3726 82.0714 13.4328 82.4042 13.8627C82.7686 14.2683 83.0368 14.7519 83.1885 15.277C81.9944 15.0922 80.8003 14.9074 79.6062 14.7226L79.5414 14.7882C77.69 13.3402 75.8392 9.18487 76.3077 6.87267Z" fill="#16153B"/>
<path d="M93.4642 56.5114C93.299 56.0916 93.0443 55.7133 92.7181 55.4033C92.3919 55.0932 92.0021 54.859 91.5762 54.7169C91.1503 54.5749 90.6986 54.5286 90.253 54.5813C89.8074 54.6339 89.3787 54.7843 88.9971 55.0218L80.5379 48.0935L79.9716 53.769L88.0914 59.4781C88.5302 60.0969 89.1794 60.5322 89.9158 60.7014C90.6522 60.8707 91.4247 60.7623 92.087 60.3966C92.7493 60.0309 93.2552 59.4334 93.5091 58.7174C93.7629 58.0013 93.7469 57.2164 93.4642 56.5114L93.4642 56.5114Z" fill="#9B51F8"/>
<path d="M80.0802 54.8215C79.0609 55.1884 78.2728 54.9157 77.9508 53.3531L68.3615 46.7407L68.3632 46.656C67.1125 46.5585 67.3986 27.9464 69.3168 27.0359C69.6671 24.9855 70.7035 23.1173 72.2542 21.7415L72.2945 21.7098L72.3457 21.7089C73.3907 21.695 74.4093 22.0399 75.2335 22.6867C76.0577 23.3336 76.6382 24.2439 76.8794 25.2674C78.0177 30.2152 77.9979 35.3616 76.8214 40.3004L76.149 43.1089L80.3351 46.6751C81.4919 46.3704 82.005 46.8389 81.9202 48.0255L80.0802 54.8215Z" fill="#E9E9FA"/>
<path d="M153.231 70.8065L155.02 71.5159L140.453 108.716L138.664 108.007L153.231 70.8065Z" fill="#FCFCFF"/>
<path d="M165.058 108.007L163.27 108.716L148.703 71.5159L150.492 70.8065L165.058 108.007Z" fill="#FCFCFF"/>
<path d="M152.609 77.6056C145.59 77.6056 139.9 75.3919 139.9 72.6612C139.9 69.9305 145.59 67.7168 152.609 67.7168C159.628 67.7168 165.318 69.9305 165.318 72.6612C165.318 75.3919 159.628 77.6056 152.609 77.6056Z" fill="#FCFCFF"/>
<path d="M160.32 15.6811C160.032 17.4943 159.04 19.1182 157.563 20.1957C156.085 21.2732 154.244 21.7161 152.442 21.4272C152.238 21.3944 152.036 21.3525 151.838 21.3014C150.173 20.8774 148.726 19.8417 147.781 18.3982C146.837 16.9546 146.463 15.2075 146.733 13.5005C146.818 12.957 146.969 12.4259 147.18 11.9186C147.83 10.3558 149.026 9.08689 150.542 8.35199C152.059 7.61709 153.79 7.46723 155.409 7.93079C157.028 8.39435 158.422 9.43916 159.327 10.8674C160.232 12.2957 160.585 14.0083 160.32 15.6811H160.32Z" fill="#9B51F8"/>
<path d="M123.23 103.22L120.14 102.295L122.183 89.5835L126.744 90.9484L123.23 103.22Z" fill="#9B51F8"/>
<path d="M142.178 98.2022C141.99 98.3671 141.801 98.5299 141.611 98.6931C141.231 99.019 140.848 99.3414 140.463 99.6595C140.27 99.8188 140.074 99.9784 139.88 100.136L139.881 100.142L139.869 100.146L139.865 100.149L139.553 100.281L138.892 99.1156L138.587 98.5788L138.155 97.8182L137.366 96.4271L133.207 89.1021L137.588 87.2437L137.869 87.9192L137.871 87.9189L138.011 88.2536L140.626 94.5012L141.161 95.7786L141.177 95.8173L141.499 96.5801L141.776 97.2411L142.084 97.9798L142.178 98.2022Z" fill="#9B51F8"/>
<path d="M165.067 66.5017C164.852 67.0149 164.63 67.527 164.405 68.0351C163.987 68.981 163.553 69.9166 163.101 70.8417C163.102 70.8438 163.1 70.8442 163.098 70.8466C162.808 71.2175 162.476 71.5531 162.109 71.8466C162.094 71.862 162.076 71.8735 162.061 71.8868C161.79 72.0993 161.494 72.2774 161.18 72.4169C161.067 72.4655 160.951 72.5143 160.838 72.5629C160.427 72.7327 160.019 72.8871 159.611 73.0304C158.886 73.2832 158.161 73.4974 157.438 73.673C157.379 73.6888 157.321 73.7024 157.263 73.7161C154.279 74.4203 151.284 74.5299 148.124 74.4308C146.563 74.3835 144.963 74.2839 143.305 74.1803C142.763 74.1448 142.219 74.1118 141.669 74.0797C141.628 74.0776 141.584 74.0737 141.541 74.072C140.755 74.0253 139.956 73.9828 139.14 73.9454C138.111 73.8982 137.053 73.8624 135.955 73.8435L136.27 75.3453C136.516 76.4998 136.937 77.6094 137.518 78.6353C138.185 79.9045 138.713 80.9087 138.299 83.2404L138.101 84.369C138.374 84.8701 138.529 85.4283 138.553 85.9997C138.576 86.5711 138.468 87.1402 138.236 87.6623L138.18 87.7866L142.468 95.0932L142.746 95.5669L141.178 95.8168L139.25 96.1263L135.982 96.6472L129.769 87.8781L129.472 87.4597L129.468 87.4363L127.076 69.0624C127.057 68.9 127.044 68.7345 127.04 68.5698C127.01 67.8225 127.129 67.0768 127.389 66.3761C127.649 65.6755 128.045 65.034 128.553 64.489C129.041 63.9632 129.627 63.54 130.278 63.2442C130.929 62.9483 131.632 62.7857 132.346 62.7658L133.993 62.7187L137.358 62.622L139.728 62.5553L139.776 62.5543L146.766 62.3541L146.94 60.2586L147.025 60.2102L149.742 58.6867L159.137 53.417L159.161 53.4045L159.779 53.0579L159.877 53.1728C159.907 53.2073 159.936 53.2418 159.963 53.2767C160.796 54.3434 161.518 55.4929 162.118 56.7072C163.118 58.688 164.006 60.7244 164.776 62.8067C164.809 62.8971 164.84 62.9793 164.866 63.0534L164.876 63.0758C164.888 63.1109 164.896 63.1335 164.9 63.1396C165.281 64.0669 165.306 65.2688 165.067 66.5017Z" fill="#16153B"/>
<path d="M164.427 59.692C164.374 59.5611 164.312 59.4295 164.249 59.3025C163.755 58.3427 163.208 57.4111 162.612 56.512C161.94 55.4872 161.157 54.3997 160.245 53.2327C159.803 52.6675 159.332 52.0818 158.831 51.4753C158.579 51.1715 158.32 50.8625 158.051 50.5483C158.04 50.5336 158.029 50.5195 158.016 50.506L157.939 50.4138L148.279 53.3162L145.453 54.3884L144.753 56.2747L144.772 56.7397C144.77 56.74 144.77 56.74 144.772 56.7418L144.82 58.0096L144.821 58.0117L144.883 59.6864L144.866 59.6869L139.301 59.845L133.565 60.0084L130.484 60.0968C129.77 60.1166 129.067 60.2791 128.416 60.575C127.765 60.8708 127.179 61.2941 126.692 61.8201C126.183 62.3651 125.787 63.0067 125.528 63.7073C125.268 64.4079 125.149 65.1536 125.178 65.9008C125.183 66.0525 125.194 66.2074 125.211 66.3591L123.432 73.6055C122.367 77.9393 121.958 82.4101 122.219 86.8668L121.188 93.9199L121.49 93.9001L125.981 93.6086L127.167 93.5327L129.146 89.3409C129.371 88.8631 129.58 88.375 129.768 87.8792C130.078 87.069 130.337 86.2397 130.543 85.3963L134.012 71.1747C134.454 71.1804 134.891 71.1832 135.324 71.1832C137.325 71.1906 139.24 71.1517 141.066 71.0665C147.007 70.7921 152.07 70.0372 156.482 68.7636C157.722 68.4072 158.911 68.0086 160.05 67.5679C160.469 67.4077 160.88 67.2413 161.285 67.0687C161.38 67.0295 161.473 66.9907 161.566 66.9497C162.403 66.5844 163.135 66.0139 163.695 65.2903C164.256 64.5667 164.627 63.7132 164.775 62.8078C164.956 61.7571 164.836 60.6761 164.427 59.692Z" fill="#16153B"/>
<path d="M123.836 101.1L120.493 100.097L119.968 99.9387L119.493 101.987L114.248 104.057C113.988 104.159 113.768 104.342 113.619 104.579C113.471 104.816 113.401 105.094 113.421 105.374C113.441 105.654 113.549 105.92 113.73 106.133C113.91 106.346 114.154 106.496 114.425 106.56L120.078 107.894L121.524 106.099L121.433 108.213L123.562 108.716L124.649 101.345L123.836 101.1Z" fill="#16153B"/>
<path d="M142.467 95.0933L142.745 95.567L142.547 95.5986L142.467 95.0933Z" fill="#16153B"/>
<path d="M141.482 95.8791L138.404 97.5336L137.921 97.7927L139.015 99.5847L136.735 104.77C136.622 105.026 136.594 105.312 136.654 105.586C136.714 105.86 136.859 106.107 137.069 106.292C137.278 106.476 137.541 106.588 137.819 106.612C138.096 106.636 138.374 106.569 138.611 106.423L143.561 103.368L143.333 101.068L144.747 102.635L146.611 101.485L142.23 95.4775L141.482 95.8791Z" fill="#16153B"/>
<path d="M119.958 55.6942C120.285 55.7951 120.63 55.8225 120.969 55.7745C121.308 55.7265 121.633 55.6043 121.92 55.4166C122.206 55.2288 122.449 54.9799 122.63 54.6875C122.811 54.3952 122.926 54.0664 122.968 53.7244L131.1 51.9509L128.009 48.9077L120.76 51.0584C120.185 51.0268 119.618 51.2088 119.167 51.5699C118.716 51.931 118.412 52.446 118.313 53.0174C118.214 53.5888 118.327 54.1769 118.63 54.6703C118.933 55.1636 119.405 55.5279 119.958 55.6942V55.6942Z" fill="#9B51F8"/>
<path d="M143.841 51.8708L158.852 38.9602C160.041 37.9356 160.777 36.4781 160.899 34.9077C161.022 33.3373 160.52 31.7822 159.505 30.5836C158.942 29.9206 158.241 29.3905 157.451 29.0308C156.662 28.6712 155.803 28.4909 154.937 28.5027C154.07 28.5146 153.217 28.7182 152.438 29.0992C151.658 29.4803 150.972 30.0293 150.427 30.7074L139.403 44.4262L124.618 48.4439L125.001 53.3594L143.841 51.8708Z" fill="#5451F8"/>
<path d="M161.347 38.6164L161.665 50.3342C166.04 57.7736 166.538 61.3861 165.327 63.3122L145.021 56.4392L144.718 55.7106L146.094 50.7339L144.391 45.3316C144.091 44.7672 140.02 41.2992 143.836 34.7208L151.514 24.3103L154.29 24.0854C155.305 26.7055 156.851 28.0055 158.679 28.6096C162.811 32.4215 162.204 33.0418 161.347 38.6164Z" fill="#E9E9FA"/>
<path d="M145.84 10.6884C145.947 10.9927 146.115 11.2715 146.334 11.5075C146.552 11.7435 146.817 11.9315 147.111 12.0599C147.58 11.6144 148.088 11.2115 148.628 10.8561C148.393 11.3355 148.201 11.8347 148.053 12.348C148.064 12.3502 148.072 12.3502 148.083 12.3523C149.057 12.4834 150.035 12.2405 150.988 11.9997L150.855 12.1223C150.847 12.8909 151.057 13.6458 151.46 14.2985C151.864 14.9512 152.444 15.4745 153.132 15.8069C153.895 16.1595 154.901 16.4046 155.089 17.2258C155.255 17.9524 154.63 18.6037 154.027 19.0359C153.425 19.468 152.72 19.9409 152.622 20.6804C152.464 21.8843 153.997 22.6474 154.258 23.8319C154.484 24.8466 153.705 25.814 152.848 26.3944C151.992 26.9748 150.984 27.3747 150.321 28.1744C149.149 29.5911 149.527 31.8505 150.736 33.237C150.867 33.388 151.006 33.5309 151.154 33.6648C151.485 33.244 151.847 32.8487 152.237 32.4825C152.707 32.0369 153.214 31.634 153.754 31.2786C153.519 31.758 153.327 32.2573 153.179 32.7706C152.986 33.4291 152.864 34.1065 152.814 34.7913C153.685 35.2074 154.598 35.5267 155.537 35.7436C157.903 36.3262 160.336 36.578 162.77 36.4918C163.881 36.4743 164.986 36.3169 166.059 36.0231C165.568 34.4614 165.424 32.8101 165.638 31.1862C166.247 32.6131 167.188 33.8712 168.383 34.8537C169.385 34.0604 170.128 32.9361 170.252 31.6699C170.404 30.1135 169.626 28.6259 168.763 27.3253C167.898 26.0247 166.903 24.7563 166.523 23.2407C165.967 21.0308 166.815 18.7327 166.924 16.4562C166.993 15.0245 166.768 13.5939 166.262 12.254C165.756 10.9141 164.981 9.69371 163.985 8.66933C162.988 7.64495 161.793 6.83862 160.473 6.30084C159.153 5.76307 157.736 5.50543 156.313 5.54407C155.029 5.61971 153.756 5.81547 152.509 6.1288C151.832 6.27498 151.157 6.42331 150.479 6.56949C149.642 6.72575 148.821 6.96038 148.027 7.27032C147.335 7.5422 146.727 7.99395 146.265 8.5795C146.038 8.87446 145.881 9.21818 145.808 9.58394C145.734 9.94971 145.745 10.3277 145.84 10.6884Z" fill="#16153B"/>
<path d="M56.6826 53.6579H172.708V53.5284C172.707 52.1262 172.153 50.7819 171.168 49.7903C170.182 48.7988 168.847 48.2411 167.454 48.2395H61.9376C60.5443 48.2411 59.2087 48.7988 58.2235 49.7903C57.2384 50.7819 56.6842 52.1262 56.6826 53.5284V53.6579Z" fill="#A0A4A8"/>
<path d="M48.0996 108.039L49.8881 108.777L64.4551 52.8419L62.6664 52.1035L48.0996 108.039Z" fill="#A0A4A8"/>
<path d="M74.4941 108.039L72.7057 108.777L58.1389 52.8419L59.9274 52.1035L74.4941 108.039Z" fill="#A0A4A8"/>
<path d="M155.111 108.039L156.9 108.777L171.466 52.8419L169.678 52.1035L155.111 108.039Z" fill="#A0A4A8"/>
<path d="M181.505 108.039L179.716 108.777L165.15 52.8419L166.938 52.1035L181.505 108.039Z" fill="#A0A4A8"/>
<path d="M101.458 44.1462C101.423 44.041 101.412 43.9295 101.423 43.8192C101.435 43.709 101.47 43.6025 101.526 43.507C101.582 43.4115 101.657 43.3292 101.748 43.2656C101.838 43.202 101.94 43.1585 102.049 43.1382C102.089 43.1296 102.13 43.1245 102.171 43.123L107.109 42.9947C107.219 42.9935 107.329 43.0158 107.431 43.06C107.533 43.1041 107.624 43.1693 107.699 43.2511C107.768 43.2363 107.839 43.2289 107.91 43.2291C108.063 43.2251 108.216 43.2516 108.36 43.3071C108.504 43.3627 108.635 43.4461 108.746 43.5528C108.858 43.6594 108.948 43.7872 109.01 43.9287C109.072 44.0702 109.107 44.2227 109.11 44.3774C109.114 44.5322 109.088 44.6863 109.033 44.8307C108.977 44.9752 108.894 45.1073 108.788 45.2195C108.682 45.3316 108.555 45.4216 108.414 45.4843C108.274 45.547 108.122 45.5812 107.968 45.585C107.791 45.5885 107.616 45.5523 107.455 45.4788L107 50.3677C106.957 50.5285 106.863 50.6706 106.732 50.773C106.601 50.8754 106.441 50.9325 106.276 50.9357L103.066 51.0188C102.901 51.0218 102.74 50.9723 102.606 50.8774C102.471 50.7825 102.37 50.6471 102.316 50.4906L101.458 44.1462ZM107.958 45.2478C108.18 45.2419 108.39 45.1478 108.543 44.9862C108.696 44.8246 108.778 44.6086 108.773 44.3855C108.768 44.1625 108.675 43.9506 108.515 43.7964C108.355 43.6421 108.14 43.5581 107.919 43.5626C107.903 43.5627 107.889 43.5701 107.874 43.5702C107.909 43.7052 107.908 43.8472 107.871 43.9818L107.548 45.1468C107.673 45.2174 107.815 45.2523 107.958 45.2478Z" fill="#5451F8"/>
<path d="M102.049 43.1384C102.154 43.7438 103.337 44.1694 104.759 44.0954C106.067 44.0348 107.136 43.5726 107.332 43.0248C107.26 43.0032 107.184 42.9931 107.109 42.9948L102.171 43.1231C102.13 43.1247 102.089 43.1298 102.049 43.1384Z" fill="#FCFCFF"/>
<path d="M117.905 42.2113C117.87 42.1061 117.858 41.9947 117.87 41.8844C117.881 41.7742 117.916 41.6677 117.972 41.5722C118.028 41.4767 118.104 41.3944 118.194 41.3308C118.284 41.2671 118.387 41.2237 118.495 41.2034C118.536 41.1948 118.576 41.1897 118.617 41.1882L123.555 41.0599C123.666 41.0587 123.776 41.081 123.878 41.1252C123.979 41.1693 124.071 41.2344 124.146 41.3163C124.215 41.3015 124.286 41.2941 124.356 41.2943C124.666 41.2868 124.967 41.4035 125.192 41.6188C125.416 41.8342 125.547 42.1305 125.555 42.4427C125.563 42.7549 125.447 43.0574 125.233 43.2838C125.019 43.5102 124.725 43.642 124.415 43.6501C124.238 43.6537 124.063 43.6174 123.901 43.5439L123.447 48.4329C123.403 48.5936 123.309 48.7358 123.179 48.8382C123.048 48.9406 122.888 48.9976 122.722 49.0009L119.512 49.084C119.348 49.087 119.187 49.0375 119.052 48.9426C118.918 48.8477 118.816 48.7123 118.763 48.5558L117.905 42.2113ZM124.405 43.3129C124.626 43.3071 124.837 43.213 124.989 43.0514C125.142 42.8898 125.225 42.6737 125.22 42.4507C125.215 42.2276 125.122 42.0158 124.962 41.8615C124.802 41.7073 124.587 41.6232 124.366 41.6278C124.35 41.6278 124.336 41.6353 124.32 41.6354C124.355 41.7704 124.355 41.9124 124.318 42.0469L123.995 43.212C124.12 43.2825 124.261 43.3174 124.405 43.3129Z" fill="#5451F8"/>
<path d="M118.496 41.2035C118.601 41.809 119.784 42.2346 121.206 42.1606C122.514 42.0999 123.583 41.6378 123.779 41.09C123.706 41.0684 123.631 41.0583 123.555 41.06L118.617 41.1883C118.576 41.1898 118.536 41.1949 118.496 41.2035Z" fill="#FCFCFF"/>
<path d="M120.326 50.4533C120.641 50.5882 120.981 50.652 121.323 50.6401C121.666 50.6282 122.001 50.541 122.306 50.3846C122.611 50.2282 122.878 50.0064 123.089 49.7348C123.299 49.4632 123.448 49.1484 123.525 48.8126L131.797 47.9085L129.041 44.5554L121.608 45.928C121.039 45.8358 120.456 45.9569 119.97 46.2683C119.484 46.5797 119.128 47.0598 118.97 47.6176C118.812 48.1754 118.863 48.7721 119.112 49.2948C119.362 49.8174 119.794 50.2296 120.326 50.4533Z" fill="#9B51F8"/>
<path d="M144.476 49.1756L160.751 37.9231C162.04 37.0298 162.925 35.6583 163.21 34.1095C163.496 32.5607 163.159 30.9612 162.275 29.6618C161.784 28.943 161.142 28.3417 160.394 27.9006C159.647 27.4595 158.812 27.1895 157.949 27.1097C157.086 27.0298 156.217 27.1422 155.402 27.4387C154.587 27.7352 153.847 28.2087 153.234 28.8254L140.84 41.3031L125.717 43.7356L125.585 48.6645L144.476 49.1756Z" fill="#E9E9FA"/>
</svg>
