<svg width="42" height="32" viewBox="0 0 42 32" fill="none" xmlns="http://www.w3.org/2000/svg">
<path d="M33.2857 13.8399C33.2857 20.742 26.2688 26.6799 17.1429 26.6799C16.7229 26.6799 16.3417 26.8451 16.0635 26.9956C15.7647 27.1574 15.4609 27.3721 15.1699 27.5995C14.6281 28.0227 14.0325 28.5686 13.4734 29.0812C13.4341 29.1172 13.395 29.1531 13.3561 29.1887C12.7426 29.7507 12.18 30.2598 11.6995 30.6158C11.5852 30.7005 11.4836 30.7704 11.3945 30.8268C11.3247 30.4126 11.3034 29.853 11.285 29.1924C11.2839 29.1504 11.2827 29.1079 11.2815 29.0651C11.2648 28.4519 11.246 27.7615 11.1612 27.192C11.1158 26.887 11.043 26.55 10.9073 26.2486C10.7746 25.954 10.5193 25.5579 10.035 25.3682C4.58213 23.2327 1 18.8008 1 13.8399C1 6.93789 8.01689 1 17.1429 1C26.2688 1 33.2857 6.93789 33.2857 13.8399ZM11.0463 31.0037C11.0463 31.0037 11.0475 31.0034 11.0497 31.003C11.0474 31.0035 11.0463 31.0037 11.0463 31.0037Z" stroke="#A0A4A8" stroke-width="2"/>
<path d="M17.1426 19.6771C17.1426 24.8638 22.5152 29.0685 29.1426 29.0685C30.0957 29.0685 32.5613 32.158 33.4503 31.9937C34.3102 31.8347 33.596 28.4268 34.3733 28.1317C38.3801 26.6106 41.1426 23.3963 41.1426 19.6771C41.1426 14.4904 35.77 10.2857 29.1426 10.2857C22.5152 10.2857 17.1426 14.4904 17.1426 19.6771Z" fill="#A0A4A8"/>
</svg>
